<svg xmlns="http://www.w3.org/2000/svg" width="512" height="512" viewBox="0 0 512 512" version="1.1"><path d="M 201.500 65.057 C 80.194 83.765, 22.979 223.271, 96.554 320.943 C 145.473 385.883, 238.162 403.451, 307.328 360.893 C 312.302 357.833, 312.302 357.833, 355.401 400.861 C 403.013 448.395, 402.710 448.154, 415 448.380 C 439.434 448.830, 455.386 425.541, 445.911 403.254 C 444.282 399.422, 435.541 390.138, 400.861 355.401 C 357.833 312.302, 357.833 312.302, 360.893 307.328 C 430.879 193.587, 332.977 44.780, 201.500 65.057 M 216 112.647 C 120.758 120.378, 78.073 235.241, 145.416 302.584 C 208.917 366.086, 316.745 332.565, 333.639 244.071 C 347.087 173.624, 287.325 106.858, 216 112.647" stroke="none" fill="#333333" fill-rule="evenodd"/></svg>