<svg width="40" height="44" viewBox="0 0 40 44" fill="none" xmlns="http://www.w3.org/2000/svg">
<path d="M34.7335 8.45167C33.8822 7.51484 32.8715 6.77169 31.759 6.26466C30.6466 5.75762 29.4543 5.49665 28.2501 5.49665C27.046 5.49665 25.8536 5.75762 24.7412 6.26466C23.6288 6.77169 22.618 7.51484 21.7668 8.45167L20.0001 10.395L18.2335 8.45167C16.514 6.56023 14.1818 5.49763 11.7501 5.49763C9.3184 5.49763 6.98627 6.56023 5.26678 8.45167C3.5473 10.3431 2.5813 12.9084 2.5813 15.5833C2.5813 18.2582 3.5473 20.8236 5.26678 22.715L20.0001 38.9217L34.7335 22.715C35.5851 21.7786 36.2607 20.6668 36.7216 19.4432C37.1826 18.2195 37.4198 16.9079 37.4198 15.5833C37.4198 14.2588 37.1826 12.9472 36.7216 11.7235C36.2607 10.4998 35.5851 9.38805 34.7335 8.45167Z" stroke="white" stroke-width="4" stroke-linecap="round" stroke-linejoin="round"/>
</svg>
