<svg width="46" height="47" viewBox="0 0 46 47" fill="none" xmlns="http://www.w3.org/2000/svg">
<path d="M23.0001 23.5C20.8917 23.5 19.0869 22.733 17.5855 21.199C16.0841 19.6649 15.3334 17.8208 15.3334 15.6667C15.3334 13.5125 16.0841 11.6684 17.5855 10.1344C19.0869 8.60035 20.8917 7.83333 23.0001 7.83333C25.1084 7.83333 26.9133 8.60035 28.4147 10.1344C29.9161 11.6684 30.6667 13.5125 30.6667 15.6667C30.6667 17.8208 29.9161 19.6649 28.4147 21.199C26.9133 22.733 25.1084 23.5 23.0001 23.5ZM7.66675 39.1667V33.6833C7.66675 32.5736 7.94626 31.5536 8.50529 30.6234C9.06432 29.6932 9.80703 28.9833 10.7334 28.4937C12.714 27.4819 14.7265 26.7231 16.7709 26.2172C18.8154 25.7113 20.8917 25.4583 23.0001 25.4583C25.1084 25.4583 27.1848 25.7113 29.2292 26.2172C31.2737 26.7231 33.2862 27.4819 35.2667 28.4937C36.1931 28.9833 36.9358 29.6932 37.4949 30.6234C38.0539 31.5536 38.3334 32.5736 38.3334 33.6833V39.1667H7.66675ZM11.5001 35.25H34.5001V33.6833C34.5001 33.3243 34.4122 32.9979 34.2365 32.7042C34.0608 32.4104 33.8292 32.1819 33.5417 32.0187C31.8167 31.1375 30.0758 30.4766 28.3188 30.0359C26.5619 29.5953 24.789 29.375 23.0001 29.375C21.2112 29.375 19.4383 29.5953 17.6813 30.0359C15.9244 30.4766 14.1834 31.1375 12.4584 32.0187C12.1709 32.1819 11.9393 32.4104 11.7636 32.7042C11.5879 32.9979 11.5001 33.3243 11.5001 33.6833V35.25ZM23.0001 19.5833C24.0542 19.5833 24.9567 19.1998 25.7074 18.4328C26.4581 17.6658 26.8334 16.7437 26.8334 15.6667C26.8334 14.5896 26.4581 13.6675 25.7074 12.9005C24.9567 12.1335 24.0542 11.75 23.0001 11.75C21.9459 11.75 21.0435 12.1335 20.2928 12.9005C19.5421 13.6675 19.1667 14.5896 19.1667 15.6667C19.1667 16.7437 19.5421 17.6658 20.2928 18.4328C21.0435 19.1998 21.9459 19.5833 23.0001 19.5833Z" fill="#E6E0E9"/>
</svg>
