<svg width="42" height="40" viewBox="0 0 42 40" fill="none" xmlns="http://www.w3.org/2000/svg">
<g clip-path="url(#clip0_2012_83)">
<path d="M1.75 1.66667H8.75L13.44 23.9833C13.6 24.7507 14.0383 25.4399 14.6782 25.9305C15.3181 26.4211 16.1187 26.6817 16.94 26.6667H33.95C34.7713 26.6817 35.5719 26.4211 36.2118 25.9305C36.8517 25.4399 37.29 24.7507 37.45 23.9833L40.25 10H10.5M17.5 35C17.5 35.9205 16.7165 36.6667 15.75 36.6667C14.7835 36.6667 14 35.9205 14 35C14 34.0795 14.7835 33.3333 15.75 33.3333C16.7165 33.3333 17.5 34.0795 17.5 35ZM36.75 35C36.75 35.9205 35.9665 36.6667 35 36.6667C34.0335 36.6667 33.25 35.9205 33.25 35C33.25 34.0795 34.0335 33.3333 35 33.3333C35.9665 33.3333 36.75 34.0795 36.75 35Z" stroke="white" stroke-width="4" stroke-linecap="round" stroke-linejoin="round"/>
</g>
<defs>
<clipPath id="clip0_2012_83">
<rect width="42" height="40" fill="white"/>
</clipPath>
</defs>
</svg>
